<svg width="32" height="32" viewBox="0 0 32 32" fill="none" xmlns="http://www.w3.org/2000/svg">
<path d="M16.0007 15.9759C14.534 15.9759 13.3154 15.4908 12.345 14.5206C11.3748 13.5501 10.8897 12.3316 10.8897 10.8649C10.8897 9.39824 11.3748 8.17969 12.345 7.20924C13.3154 6.23902 14.534 5.75391 16.0007 5.75391C17.4673 5.75391 18.6859 6.23902 19.6563 7.20924C20.6265 8.17969 21.1117 9.39824 21.1117 10.8649C21.1117 12.3316 20.6265 13.5501 19.6563 14.5206C18.6859 15.4908 17.4673 15.9759 16.0007 15.9759ZM5.33398 26.6649V23.3316C5.33398 22.5167 5.53954 21.8037 5.95065 21.1926C6.36176 20.5815 6.89698 20.1167 7.55632 19.7982C9.0081 19.1242 10.4265 18.6187 11.8117 18.2816C13.197 17.9445 14.5933 17.7759 16.0007 17.7759C17.408 17.7759 18.8005 17.9481 20.1783 18.2926C21.5561 18.637 22.9703 19.1404 24.421 19.8026C25.0997 20.123 25.6437 20.5876 26.053 21.1962C26.4625 21.8049 26.6673 22.5167 26.6673 23.3316V26.6649H5.33398ZM7.55632 24.4426H24.445V23.3316C24.445 23.0131 24.3543 22.7131 24.173 22.4316C23.9914 22.15 23.7637 21.9389 23.4897 21.7982C22.1414 21.1389 20.871 20.6741 19.6783 20.4039C18.4859 20.1335 17.26 19.9982 16.0007 19.9982C14.7413 19.9982 13.508 20.1335 12.3007 20.4039C11.0933 20.6741 9.82298 21.1389 8.48965 21.7982C8.21543 21.9389 7.99132 22.15 7.81732 22.4316C7.64332 22.7131 7.55632 23.0131 7.55632 23.3316V24.4426ZM16.0007 13.7539C16.8229 13.7539 17.5099 13.4779 18.0617 12.9259C18.6137 12.3741 18.8897 11.6871 18.8897 10.8649C18.8897 10.0427 18.6137 9.35568 18.0617 8.80391C17.5099 8.25191 16.8229 7.97591 16.0007 7.97591C15.1784 7.97591 14.4914 8.25191 13.9397 8.80391C13.3877 9.35568 13.1117 10.0427 13.1117 10.8649C13.1117 11.6871 13.3877 12.3741 13.9397 12.9259C14.4914 13.4779 15.1784 13.7539 16.0007 13.7539Z" fill="#737791"/>
</svg>
