<svg width="32" height="32" viewBox="0 0 32 32" fill="none" xmlns="http://www.w3.org/2000/svg">
<mask id="mask0_7048_18797" style="mask-type:luminance" maskUnits="userSpaceOnUse" x="0" y="0" width="32" height="32">
<rect width="32" height="32" fill="white"/>
</mask>
<g mask="url(#mask0_7048_18797)">
<path d="M13.6712 7.84619L14.0424 13.3661L14.2266 16.1405C14.2286 16.4259 14.2733 16.7093 14.3596 16.9817C14.5821 17.5105 15.1176 17.8465 15.7001 17.8231L24.5764 17.2424C24.9608 17.2361 25.332 17.3799 25.6082 17.6421C25.8385 17.8607 25.9872 18.1465 26.0341 18.454L26.0498 18.6407C25.6825 23.7269 21.9469 27.9693 16.8712 29.0644C11.7954 30.1595 6.59045 27.8461 4.08225 23.3803C3.35915 22.0828 2.9075 20.6568 2.75381 19.1857C2.68961 18.7503 2.66134 18.3104 2.66927 17.8704C2.66134 12.4174 6.54459 7.70302 11.9804 6.5665C12.6346 6.46462 13.276 6.81096 13.5384 7.40778C13.6062 7.54599 13.651 7.69402 13.6712 7.84619Z" fill="#737791"/>
<path opacity="0.4" d="M29.3327 13.0824L29.3234 13.1259L29.2965 13.189L29.3002 13.3625C29.2863 13.5923 29.1975 13.8133 29.0447 13.992C28.8854 14.178 28.6678 14.3047 28.4282 14.3539L28.2821 14.3739L18.041 15.0375C17.7003 15.0711 17.3611 14.9612 17.1079 14.7353C16.8967 14.5469 16.7618 14.2928 16.7237 14.0189L16.0363 3.79276C16.0243 3.75819 16.0243 3.72071 16.0363 3.68612C16.0457 3.40424 16.1698 3.1378 16.3809 2.94632C16.5918 2.75484 16.8723 2.65428 17.1594 2.66711C23.2393 2.82179 28.3491 7.19374 29.3327 13.0824Z" fill="#737791"/>
</g>
</svg>
