<svg width="32" height="32" viewBox="0 0 32 32" fill="none" xmlns="http://www.w3.org/2000/svg">
<path fill-rule="evenodd" clip-rule="evenodd" d="M21.7761 22.2038L26.3385 16.8804C26.5563 16.6319 26.6678 16.3181 26.668 16.0027C26.6681 15.7869 26.6161 15.5703 26.5104 15.3733C26.4634 15.2855 26.4061 15.2021 26.3385 15.125L21.7761 9.80163C21.2969 9.2425 20.4552 9.17771 19.896 9.6569C19.3369 10.1361 19.2721 10.9778 19.7513 11.537L22.4359 14.6693L12.1097 14.6693C11.3733 14.6693 10.7763 15.2662 10.7763 16.0026C10.7763 16.739 11.3733 17.336 12.1097 17.336L22.436 17.336L19.7513 20.4685C19.2721 21.0276 19.3369 21.8693 19.896 22.3485C20.4552 22.8277 21.2969 22.7629 21.7761 22.2038ZM13.3346 8.0026C14.071 8.0026 14.668 8.59956 14.668 9.33594L14.668 11.3359C14.668 12.0723 15.2649 12.6693 16.0013 12.6693C16.7377 12.6693 17.3346 12.0723 17.3346 11.3359L17.3346 9.33594C17.3346 7.1268 15.5438 5.33594 13.3346 5.33594L9.33463 5.33594C7.1255 5.33594 5.33463 7.1268 5.33463 9.33594L5.33463 22.6693C5.33463 24.8784 7.12549 26.6693 9.33463 26.6693L13.3346 26.6693C15.5438 26.6693 17.3346 24.8784 17.3346 22.6693L17.3346 20.6693C17.3346 19.9329 16.7377 19.3359 16.0013 19.3359C15.2649 19.3359 14.668 19.9329 14.668 20.6693L14.668 22.6693C14.668 23.4057 14.071 24.0026 13.3346 24.0026L9.33463 24.0026C8.59825 24.0026 8.0013 23.4057 8.0013 22.6693L8.0013 9.33594C8.0013 8.59956 8.59826 8.0026 9.33463 8.0026L13.3346 8.0026Z" fill="#737791"/>
</svg>
