<svg width="32" height="32" viewBox="0 0 32 32" fill="none" xmlns="http://www.w3.org/2000/svg">
<path d="M25.3333 7.9987H22.6667C22.6667 4.26536 19.7333 1.33203 16 1.33203C12.2667 1.33203 9.33333 4.26536 9.33333 7.9987H6.66667C5.2 7.9987 4 9.1987 4 10.6654V26.6654C4 28.132 5.2 29.332 6.66667 29.332H25.3333C26.8 29.332 28 28.132 28 26.6654V10.6654C28 9.1987 26.8 7.9987 25.3333 7.9987ZM16 3.9987C18.2667 3.9987 20 5.73203 20 7.9987H12C12 5.73203 13.7333 3.9987 16 3.9987ZM25.3333 26.6654H6.66667V10.6654H25.3333V26.6654ZM16 15.9987C13.7333 15.9987 12 14.2654 12 11.9987H9.33333C9.33333 15.732 12.2667 18.6654 16 18.6654C19.7333 18.6654 22.6667 15.732 22.6667 11.9987H20C20 14.2654 18.2667 15.9987 16 15.9987Z" fill="#737791"/>
</svg>
