<svg width="49" height="48" viewBox="0 0 49 48" fill="none" xmlns="http://www.w3.org/2000/svg">
<rect x="0.5" width="48" height="48" rx="8" fill="#C50019"/>
<path d="M29.2762 12.9388C30.6217 12.9388 31.7125 11.8332 31.7125 10.4694C31.7125 9.10559 30.6217 8 29.2762 8C27.9306 8 26.8398 9.10559 26.8398 10.4694C26.8398 11.8332 27.9306 12.9388 29.2762 12.9388Z" fill="white"/>
<path d="M29.4808 19.9363C30.6733 18.0787 29.2071 14.7944 26.133 12.5133C22.9953 10.185 19.3786 9.78628 18.0542 11.6216C16.7297 13.4569 18.1984 16.8304 21.336 19.1586C21.7197 19.4434 22.1107 19.6985 22.5041 19.9239L23.5109 20.4565C23.1908 20.9518 22.3673 22.2249 22.0471 22.7203L20.8277 21.7246C20.383 21.3209 19.623 20.7314 18.538 20.3376C17.7341 20.0478 17.0156 19.9586 16.5 19.9388V38.4729H33.3736V19.9363H29.4808ZM27.3695 32.3849C24.7694 35.0202 21.5755 36.0506 20.2315 34.6883C18.8875 33.3261 19.9065 30.0864 22.5041 27.4535C25.1042 24.8182 28.2981 23.7878 29.6421 25.15C30.9861 26.5123 29.9671 29.752 27.3695 32.3849Z" fill="white"/>
</svg>
